<mxfile host="app.diagrams.net" modified="2022-04-28T02:30:46.135Z" agent="5.0 (Windows NT 10.0; Win64; x64) AppleWebKit/537.36 (KHTML, like Gecko) Chrome/100.0.4896.127 Safari/537.36" etag="LJ9XKfj1clRdHiINd3Tm" version="17.4.6" type="github">
  <diagram id="DUzX0GU5lVQODzSa384S" name="Page-1">
    <mxGraphModel dx="1477" dy="643" grid="1" gridSize="10" guides="1" tooltips="1" connect="1" arrows="1" fold="1" page="1" pageScale="1" pageWidth="827" pageHeight="1169" math="0" shadow="0">
      <root>
        <mxCell id="0" />
        <mxCell id="1" parent="0" />
        <mxCell id="tTSo1zmGXzcevOF5TI4r-14" style="rounded=0;orthogonalLoop=1;jettySize=auto;html=1;exitX=0.9;exitY=0.02;exitDx=0;exitDy=0;exitPerimeter=0;" edge="1" parent="1" source="tTSo1zmGXzcevOF5TI4r-1" target="tTSo1zmGXzcevOF5TI4r-2">
          <mxGeometry relative="1" as="geometry" />
        </mxCell>
        <mxCell id="tTSo1zmGXzcevOF5TI4r-15" style="rounded=0;orthogonalLoop=1;jettySize=auto;html=1;exitX=0.5;exitY=0;exitDx=0;exitDy=0;exitPerimeter=0;" edge="1" parent="1" source="tTSo1zmGXzcevOF5TI4r-1" target="tTSo1zmGXzcevOF5TI4r-3">
          <mxGeometry relative="1" as="geometry" />
        </mxCell>
        <mxCell id="tTSo1zmGXzcevOF5TI4r-16" style="rounded=0;orthogonalLoop=1;jettySize=auto;html=1;exitX=0.08;exitY=0.5;exitDx=0;exitDy=0;exitPerimeter=0;" edge="1" parent="1" source="tTSo1zmGXzcevOF5TI4r-1" target="tTSo1zmGXzcevOF5TI4r-4">
          <mxGeometry relative="1" as="geometry" />
        </mxCell>
        <mxCell id="tTSo1zmGXzcevOF5TI4r-17" style="rounded=0;orthogonalLoop=1;jettySize=auto;html=1;exitX=0.02;exitY=0.98;exitDx=0;exitDy=0;exitPerimeter=0;" edge="1" parent="1" source="tTSo1zmGXzcevOF5TI4r-1" target="tTSo1zmGXzcevOF5TI4r-6">
          <mxGeometry relative="1" as="geometry" />
        </mxCell>
        <mxCell id="tTSo1zmGXzcevOF5TI4r-18" style="rounded=0;orthogonalLoop=1;jettySize=auto;html=1;exitX=0.98;exitY=0.98;exitDx=0;exitDy=0;exitPerimeter=0;" edge="1" parent="1" source="tTSo1zmGXzcevOF5TI4r-1" target="tTSo1zmGXzcevOF5TI4r-7">
          <mxGeometry relative="1" as="geometry" />
        </mxCell>
        <mxCell id="tTSo1zmGXzcevOF5TI4r-39" style="edgeStyle=none;rounded=0;orthogonalLoop=1;jettySize=auto;html=1;exitX=0.92;exitY=0.5;exitDx=0;exitDy=0;exitPerimeter=0;" edge="1" parent="1" source="tTSo1zmGXzcevOF5TI4r-1">
          <mxGeometry relative="1" as="geometry">
            <mxPoint x="220" y="150" as="targetPoint" />
          </mxGeometry>
        </mxCell>
        <mxCell id="tTSo1zmGXzcevOF5TI4r-1" value="" style="verticalLabelPosition=bottom;html=1;verticalAlign=top;align=center;strokeColor=none;fillColor=#00BEF2;shape=mxgraph.azure.laptop;pointerEvents=1;" vertex="1" parent="1">
          <mxGeometry x="90" y="137.1" width="40" height="22.9" as="geometry" />
        </mxCell>
        <mxCell id="tTSo1zmGXzcevOF5TI4r-2" value="" style="points=[];aspect=fixed;html=1;align=center;shadow=0;dashed=0;image;image=img/lib/allied_telesis/computer_and_terminals/Personal_Computer_Wireless.svg;" vertex="1" parent="1">
          <mxGeometry x="153.49" y="94.19999999999999" width="42.1" height="42.9" as="geometry" />
        </mxCell>
        <mxCell id="tTSo1zmGXzcevOF5TI4r-3" value="" style="points=[];aspect=fixed;html=1;align=center;shadow=0;dashed=0;image;image=img/lib/allied_telesis/computer_and_terminals/Personal_Computer_with_Server.svg;" vertex="1" parent="1">
          <mxGeometry x="82.4" y="67.6" width="42.4" height="42.4" as="geometry" />
        </mxCell>
        <mxCell id="tTSo1zmGXzcevOF5TI4r-4" value="" style="points=[];aspect=fixed;html=1;align=center;shadow=0;dashed=0;image;image=img/lib/allied_telesis/computer_and_terminals/Personal_Computer_with_Server.svg;" vertex="1" parent="1">
          <mxGeometry x="20" y="114.2" width="45.8" height="45.8" as="geometry" />
        </mxCell>
        <mxCell id="tTSo1zmGXzcevOF5TI4r-6" value="" style="points=[];aspect=fixed;html=1;align=center;shadow=0;dashed=0;image;image=img/lib/allied_telesis/computer_and_terminals/Personal_Computer_with_Server.svg;" vertex="1" parent="1">
          <mxGeometry x="50" y="180" width="40" height="40" as="geometry" />
        </mxCell>
        <mxCell id="tTSo1zmGXzcevOF5TI4r-7" value="" style="points=[];aspect=fixed;html=1;align=center;shadow=0;dashed=0;image;image=img/lib/allied_telesis/computer_and_terminals/Personal_Computer.svg;" vertex="1" parent="1">
          <mxGeometry x="134.8" y="182.5" width="27.67" height="37.5" as="geometry" />
        </mxCell>
        <mxCell id="tTSo1zmGXzcevOF5TI4r-47" style="edgeStyle=none;rounded=0;orthogonalLoop=1;jettySize=auto;html=1;exitX=1;exitY=0.25;exitDx=0;exitDy=0;entryX=-0.053;entryY=0.948;entryDx=0;entryDy=0;entryPerimeter=0;" edge="1" parent="1" source="tTSo1zmGXzcevOF5TI4r-21" target="tTSo1zmGXzcevOF5TI4r-45">
          <mxGeometry relative="1" as="geometry" />
        </mxCell>
        <mxCell id="tTSo1zmGXzcevOF5TI4r-21" value="" style="image;html=1;image=img/lib/clip_art/computers/Server_Rack_Empty_128x128.png" vertex="1" parent="1">
          <mxGeometry x="110" y="230" width="30" height="50" as="geometry" />
        </mxCell>
        <mxCell id="tTSo1zmGXzcevOF5TI4r-48" style="edgeStyle=none;rounded=0;orthogonalLoop=1;jettySize=auto;html=1;exitX=0.75;exitY=0;exitDx=0;exitDy=0;" edge="1" parent="1" source="tTSo1zmGXzcevOF5TI4r-22">
          <mxGeometry relative="1" as="geometry">
            <mxPoint x="220" y="200" as="targetPoint" />
          </mxGeometry>
        </mxCell>
        <mxCell id="tTSo1zmGXzcevOF5TI4r-22" value="" style="image;html=1;image=img/lib/clip_art/computers/Server_Rack_Empty_128x128.png" vertex="1" parent="1">
          <mxGeometry x="183.6" y="230" width="30" height="50" as="geometry" />
        </mxCell>
        <mxCell id="tTSo1zmGXzcevOF5TI4r-49" style="edgeStyle=none;rounded=0;orthogonalLoop=1;jettySize=auto;html=1;exitX=0;exitY=0;exitDx=0;exitDy=0;entryX=0.547;entryY=1.138;entryDx=0;entryDy=0;entryPerimeter=0;" edge="1" parent="1" source="tTSo1zmGXzcevOF5TI4r-23" target="tTSo1zmGXzcevOF5TI4r-45">
          <mxGeometry relative="1" as="geometry" />
        </mxCell>
        <mxCell id="tTSo1zmGXzcevOF5TI4r-23" value="" style="image;html=1;image=img/lib/clip_art/computers/Server_Rack_Empty_128x128.png" vertex="1" parent="1">
          <mxGeometry x="249.54000000000002" y="230" width="30" height="50" as="geometry" />
        </mxCell>
        <mxCell id="tTSo1zmGXzcevOF5TI4r-50" style="edgeStyle=none;rounded=0;orthogonalLoop=1;jettySize=auto;html=1;exitX=0;exitY=0;exitDx=0;exitDy=0;entryX=0.947;entryY=0.948;entryDx=0;entryDy=0;entryPerimeter=0;" edge="1" parent="1" source="tTSo1zmGXzcevOF5TI4r-24" target="tTSo1zmGXzcevOF5TI4r-45">
          <mxGeometry relative="1" as="geometry" />
        </mxCell>
        <mxCell id="tTSo1zmGXzcevOF5TI4r-24" value="" style="image;html=1;image=img/lib/clip_art/computers/Server_Rack_Empty_128x128.png" vertex="1" parent="1">
          <mxGeometry x="310" y="230" width="30" height="50" as="geometry" />
        </mxCell>
        <mxCell id="tTSo1zmGXzcevOF5TI4r-42" style="edgeStyle=none;rounded=0;orthogonalLoop=1;jettySize=auto;html=1;exitX=0.5;exitY=0;exitDx=0;exitDy=0;entryX=0.5;entryY=1;entryDx=0;entryDy=0;" edge="1" parent="1" source="tTSo1zmGXzcevOF5TI4r-27" target="tTSo1zmGXzcevOF5TI4r-41">
          <mxGeometry relative="1" as="geometry">
            <mxPoint x="230" y="80" as="targetPoint" />
          </mxGeometry>
        </mxCell>
        <mxCell id="tTSo1zmGXzcevOF5TI4r-46" style="edgeStyle=none;rounded=0;orthogonalLoop=1;jettySize=auto;html=1;exitX=0.5;exitY=1;exitDx=0;exitDy=0;entryX=0.613;entryY=-0.005;entryDx=0;entryDy=0;entryPerimeter=0;" edge="1" parent="1" source="tTSo1zmGXzcevOF5TI4r-27" target="tTSo1zmGXzcevOF5TI4r-45">
          <mxGeometry relative="1" as="geometry" />
        </mxCell>
        <mxCell id="tTSo1zmGXzcevOF5TI4r-27" value="" style="aspect=fixed;perimeter=ellipsePerimeter;html=1;align=center;shadow=0;dashed=0;spacingTop=3;image;image=img/lib/active_directory/database.svg;" vertex="1" parent="1">
          <mxGeometry x="210" y="130.05" width="40.47" height="29.95" as="geometry" />
        </mxCell>
        <mxCell id="tTSo1zmGXzcevOF5TI4r-28" style="rounded=0;orthogonalLoop=1;jettySize=auto;html=1;exitX=0.92;exitY=0.5;exitDx=0;exitDy=0;exitPerimeter=0;" edge="1" parent="1" source="tTSo1zmGXzcevOF5TI4r-33" target="tTSo1zmGXzcevOF5TI4r-34">
          <mxGeometry relative="1" as="geometry" />
        </mxCell>
        <mxCell id="tTSo1zmGXzcevOF5TI4r-29" style="rounded=0;orthogonalLoop=1;jettySize=auto;html=1;exitX=0.5;exitY=0;exitDx=0;exitDy=0;exitPerimeter=0;" edge="1" parent="1" source="tTSo1zmGXzcevOF5TI4r-33" target="tTSo1zmGXzcevOF5TI4r-35">
          <mxGeometry relative="1" as="geometry" />
        </mxCell>
        <mxCell id="tTSo1zmGXzcevOF5TI4r-30" style="rounded=0;orthogonalLoop=1;jettySize=auto;html=1;exitX=0.1;exitY=0.02;exitDx=0;exitDy=0;exitPerimeter=0;" edge="1" parent="1" source="tTSo1zmGXzcevOF5TI4r-33" target="tTSo1zmGXzcevOF5TI4r-36">
          <mxGeometry relative="1" as="geometry" />
        </mxCell>
        <mxCell id="tTSo1zmGXzcevOF5TI4r-31" style="rounded=0;orthogonalLoop=1;jettySize=auto;html=1;exitX=0.02;exitY=0.98;exitDx=0;exitDy=0;exitPerimeter=0;" edge="1" parent="1" source="tTSo1zmGXzcevOF5TI4r-33" target="tTSo1zmGXzcevOF5TI4r-37">
          <mxGeometry relative="1" as="geometry" />
        </mxCell>
        <mxCell id="tTSo1zmGXzcevOF5TI4r-32" style="rounded=0;orthogonalLoop=1;jettySize=auto;html=1;exitX=0.98;exitY=0.98;exitDx=0;exitDy=0;exitPerimeter=0;" edge="1" parent="1" source="tTSo1zmGXzcevOF5TI4r-33" target="tTSo1zmGXzcevOF5TI4r-38">
          <mxGeometry relative="1" as="geometry" />
        </mxCell>
        <mxCell id="tTSo1zmGXzcevOF5TI4r-40" style="edgeStyle=none;rounded=0;orthogonalLoop=1;jettySize=auto;html=1;exitX=0.08;exitY=0.5;exitDx=0;exitDy=0;exitPerimeter=0;entryX=1;entryY=0.5;entryDx=0;entryDy=0;" edge="1" parent="1" source="tTSo1zmGXzcevOF5TI4r-33" target="tTSo1zmGXzcevOF5TI4r-27">
          <mxGeometry relative="1" as="geometry" />
        </mxCell>
        <mxCell id="tTSo1zmGXzcevOF5TI4r-33" value="" style="verticalLabelPosition=bottom;html=1;verticalAlign=top;align=center;strokeColor=none;fillColor=#00BEF2;shape=mxgraph.azure.laptop;pointerEvents=1;" vertex="1" parent="1">
          <mxGeometry x="340" y="130.4" width="40" height="22.9" as="geometry" />
        </mxCell>
        <mxCell id="tTSo1zmGXzcevOF5TI4r-34" value="" style="points=[];aspect=fixed;html=1;align=center;shadow=0;dashed=0;image;image=img/lib/allied_telesis/computer_and_terminals/Personal_Computer_Wireless.svg;" vertex="1" parent="1">
          <mxGeometry x="400" y="109.99999999999999" width="42.1" height="42.9" as="geometry" />
        </mxCell>
        <mxCell id="tTSo1zmGXzcevOF5TI4r-35" value="" style="points=[];aspect=fixed;html=1;align=center;shadow=0;dashed=0;image;image=img/lib/allied_telesis/computer_and_terminals/Personal_Computer_with_Server.svg;" vertex="1" parent="1">
          <mxGeometry x="332.4" y="60.89999999999999" width="42.4" height="42.4" as="geometry" />
        </mxCell>
        <mxCell id="tTSo1zmGXzcevOF5TI4r-36" value="" style="points=[];aspect=fixed;html=1;align=center;shadow=0;dashed=0;image;image=img/lib/allied_telesis/computer_and_terminals/Personal_Computer_with_Server.svg;" vertex="1" parent="1">
          <mxGeometry x="270" y="84.25" width="45.8" height="45.8" as="geometry" />
        </mxCell>
        <mxCell id="tTSo1zmGXzcevOF5TI4r-37" value="" style="points=[];aspect=fixed;html=1;align=center;shadow=0;dashed=0;image;image=img/lib/allied_telesis/computer_and_terminals/Personal_Computer_with_Server.svg;" vertex="1" parent="1">
          <mxGeometry x="300" y="173.3" width="40" height="40" as="geometry" />
        </mxCell>
        <mxCell id="tTSo1zmGXzcevOF5TI4r-38" value="" style="points=[];aspect=fixed;html=1;align=center;shadow=0;dashed=0;image;image=img/lib/allied_telesis/computer_and_terminals/Personal_Computer.svg;" vertex="1" parent="1">
          <mxGeometry x="384.8" y="175.8" width="27.67" height="37.5" as="geometry" />
        </mxCell>
        <mxCell id="tTSo1zmGXzcevOF5TI4r-44" style="edgeStyle=none;rounded=0;orthogonalLoop=1;jettySize=auto;html=1;exitX=0.5;exitY=0;exitDx=0;exitDy=0;entryX=0.5;entryY=1;entryDx=0;entryDy=0;" edge="1" parent="1" source="tTSo1zmGXzcevOF5TI4r-41" target="tTSo1zmGXzcevOF5TI4r-43">
          <mxGeometry relative="1" as="geometry" />
        </mxCell>
        <mxCell id="tTSo1zmGXzcevOF5TI4r-41" value="" style="image;html=1;image=img/lib/clip_art/networking/Firewall_02_128x128.png" vertex="1" parent="1">
          <mxGeometry x="215.23" y="58.2" width="30" height="36" as="geometry" />
        </mxCell>
        <mxCell id="tTSo1zmGXzcevOF5TI4r-43" value="" style="aspect=fixed;perimeter=ellipsePerimeter;html=1;align=center;shadow=0;dashed=0;spacingTop=3;image;image=img/lib/active_directory/internet_cloud.svg;" vertex="1" parent="1">
          <mxGeometry x="205.23" width="50" height="31.5" as="geometry" />
        </mxCell>
        <mxCell id="tTSo1zmGXzcevOF5TI4r-45" value="" style="html=1;verticalLabelPosition=bottom;align=center;labelBackgroundColor=#ffffff;verticalAlign=top;strokeWidth=2;strokeColor=#0080F0;shadow=0;dashed=0;shape=mxgraph.ios7.icons.storage;" vertex="1" parent="1">
          <mxGeometry x="213.6" y="188.05" width="30" height="10.5" as="geometry" />
        </mxCell>
        <mxCell id="tTSo1zmGXzcevOF5TI4r-51" value="&lt;font style=&quot;font-size: 14px&quot;&gt;&lt;b&gt;LAN&lt;/b&gt;&lt;/font&gt;" style="text;html=1;strokeColor=none;fillColor=none;align=center;verticalAlign=middle;whiteSpace=wrap;rounded=0;" vertex="1" parent="1">
          <mxGeometry x="1.4210854715202004e-14" y="1.5" width="60" height="30" as="geometry" />
        </mxCell>
        <mxCell id="tTSo1zmGXzcevOF5TI4r-60" style="edgeStyle=none;rounded=0;orthogonalLoop=1;jettySize=auto;html=1;exitX=0;exitY=1;exitDx=0;exitDy=0;exitPerimeter=0;entryX=1;entryY=0;entryDx=0;entryDy=0;" edge="1" parent="1" source="tTSo1zmGXzcevOF5TI4r-52" target="tTSo1zmGXzcevOF5TI4r-53">
          <mxGeometry relative="1" as="geometry" />
        </mxCell>
        <mxCell id="tTSo1zmGXzcevOF5TI4r-52" value="" style="shape=mxgraph.cisco.buildings.branch_office;html=1;pointerEvents=1;dashed=0;fillColor=#036897;strokeColor=#ffffff;strokeWidth=2;verticalLabelPosition=bottom;verticalAlign=top;align=center;outlineConnect=0;" vertex="1" parent="1">
          <mxGeometry x="720" y="57.099999999999994" width="30" height="50" as="geometry" />
        </mxCell>
        <mxCell id="tTSo1zmGXzcevOF5TI4r-53" value="" style="shape=image;html=1;verticalAlign=top;verticalLabelPosition=bottom;labelBackgroundColor=#ffffff;imageAspect=0;aspect=fixed;image=https://cdn1.iconfinder.com/data/icons/software-engineering-and-video-gaming/512/501_Buildings_city_sensor_smart_urban_Hardware_Engineering_Internet-128.png" vertex="1" parent="1">
          <mxGeometry x="640" y="118.05" width="61.95" height="61.95" as="geometry" />
        </mxCell>
        <mxCell id="tTSo1zmGXzcevOF5TI4r-57" style="edgeStyle=none;rounded=0;orthogonalLoop=1;jettySize=auto;html=1;exitX=0.75;exitY=1;exitDx=0;exitDy=0;" edge="1" parent="1" source="tTSo1zmGXzcevOF5TI4r-54" target="tTSo1zmGXzcevOF5TI4r-53">
          <mxGeometry relative="1" as="geometry" />
        </mxCell>
        <mxCell id="tTSo1zmGXzcevOF5TI4r-54" value="" style="shape=image;html=1;verticalAlign=top;verticalLabelPosition=bottom;labelBackgroundColor=#ffffff;imageAspect=0;aspect=fixed;image=https://cdn0.iconfinder.com/data/icons/maternity-and-pregnancy-2/512/130_skyscraper_Architecture_buildings_business_office_real_estate-128.png" vertex="1" parent="1">
          <mxGeometry x="577.6" y="51.800000000000004" width="62.4" height="62.4" as="geometry" />
        </mxCell>
        <mxCell id="tTSo1zmGXzcevOF5TI4r-58" style="edgeStyle=none;rounded=0;orthogonalLoop=1;jettySize=auto;html=1;exitX=1;exitY=0.25;exitDx=0;exitDy=0;" edge="1" parent="1" source="tTSo1zmGXzcevOF5TI4r-55" target="tTSo1zmGXzcevOF5TI4r-53">
          <mxGeometry relative="1" as="geometry" />
        </mxCell>
        <mxCell id="tTSo1zmGXzcevOF5TI4r-55" value="" style="shape=image;html=1;verticalAlign=top;verticalLabelPosition=bottom;labelBackgroundColor=#ffffff;imageAspect=0;aspect=fixed;image=https://cdn0.iconfinder.com/data/icons/analytic-investment-and-balanced-scorecard/512/33_Architecture_and_City_Buildings_Canada_Tower_Landmark-128.png" vertex="1" parent="1">
          <mxGeometry x="570" y="163" width="57" height="57" as="geometry" />
        </mxCell>
        <mxCell id="tTSo1zmGXzcevOF5TI4r-59" style="edgeStyle=none;rounded=0;orthogonalLoop=1;jettySize=auto;html=1;exitX=0;exitY=0.25;exitDx=0;exitDy=0;entryX=0.985;entryY=0.871;entryDx=0;entryDy=0;entryPerimeter=0;" edge="1" parent="1" source="tTSo1zmGXzcevOF5TI4r-56" target="tTSo1zmGXzcevOF5TI4r-53">
          <mxGeometry relative="1" as="geometry" />
        </mxCell>
        <mxCell id="tTSo1zmGXzcevOF5TI4r-56" value="" style="shape=image;html=1;verticalAlign=top;verticalLabelPosition=bottom;labelBackgroundColor=#ffffff;imageAspect=0;aspect=fixed;image=https://cdn0.iconfinder.com/data/icons/phosphor-duotone-vol-1/256/buildings-duotone-128.png" vertex="1" parent="1">
          <mxGeometry x="720" y="164.5" width="54" height="54" as="geometry" />
        </mxCell>
        <mxCell id="tTSo1zmGXzcevOF5TI4r-61" value="ou" style="text;html=1;strokeColor=none;fillColor=none;align=center;verticalAlign=middle;whiteSpace=wrap;rounded=0;" vertex="1" parent="1">
          <mxGeometry x="774" y="123.3" width="60" height="30" as="geometry" />
        </mxCell>
        <mxCell id="tTSo1zmGXzcevOF5TI4r-70" style="edgeStyle=none;rounded=0;orthogonalLoop=1;jettySize=auto;html=1;exitX=1;exitY=0;exitDx=0;exitDy=0;exitPerimeter=0;entryX=0.5;entryY=1;entryDx=0;entryDy=0;entryPerimeter=0;" edge="1" parent="1" source="tTSo1zmGXzcevOF5TI4r-62" target="tTSo1zmGXzcevOF5TI4r-65">
          <mxGeometry relative="1" as="geometry" />
        </mxCell>
        <mxCell id="tTSo1zmGXzcevOF5TI4r-62" value="" style="shape=mxgraph.cisco.buildings.branch_office;html=1;pointerEvents=1;dashed=0;fillColor=#036897;strokeColor=#ffffff;strokeWidth=2;verticalLabelPosition=bottom;verticalAlign=top;align=center;outlineConnect=0;" vertex="1" parent="1">
          <mxGeometry x="940" y="182.5" width="30" height="50" as="geometry" />
        </mxCell>
        <mxCell id="tTSo1zmGXzcevOF5TI4r-69" style="edgeStyle=none;rounded=0;orthogonalLoop=1;jettySize=auto;html=1;exitX=1;exitY=0.5;exitDx=0;exitDy=0;exitPerimeter=0;entryX=0;entryY=0.5;entryDx=0;entryDy=0;entryPerimeter=0;" edge="1" parent="1" source="tTSo1zmGXzcevOF5TI4r-63" target="tTSo1zmGXzcevOF5TI4r-62">
          <mxGeometry relative="1" as="geometry" />
        </mxCell>
        <mxCell id="tTSo1zmGXzcevOF5TI4r-72" style="edgeStyle=none;rounded=0;orthogonalLoop=1;jettySize=auto;html=1;exitX=0.5;exitY=0;exitDx=0;exitDy=0;exitPerimeter=0;entryX=0;entryY=1;entryDx=0;entryDy=0;entryPerimeter=0;" edge="1" parent="1" source="tTSo1zmGXzcevOF5TI4r-63" target="tTSo1zmGXzcevOF5TI4r-66">
          <mxGeometry relative="1" as="geometry" />
        </mxCell>
        <mxCell id="tTSo1zmGXzcevOF5TI4r-63" value="" style="shape=mxgraph.cisco.buildings.branch_office;html=1;pointerEvents=1;dashed=0;fillColor=#036897;strokeColor=#ffffff;strokeWidth=2;verticalLabelPosition=bottom;verticalAlign=top;align=center;outlineConnect=0;" vertex="1" parent="1">
          <mxGeometry x="870" y="180" width="30" height="50" as="geometry" />
        </mxCell>
        <mxCell id="tTSo1zmGXzcevOF5TI4r-68" style="edgeStyle=none;rounded=0;orthogonalLoop=1;jettySize=auto;html=1;exitX=0.87;exitY=0.88;exitDx=0;exitDy=0;exitPerimeter=0;entryX=0.2;entryY=0.08;entryDx=0;entryDy=0;entryPerimeter=0;" edge="1" parent="1" source="tTSo1zmGXzcevOF5TI4r-64" target="tTSo1zmGXzcevOF5TI4r-63">
          <mxGeometry relative="1" as="geometry" />
        </mxCell>
        <mxCell id="tTSo1zmGXzcevOF5TI4r-64" value="" style="shape=mxgraph.cisco.buildings.branch_office;html=1;pointerEvents=1;dashed=0;fillColor=#036897;strokeColor=#ffffff;strokeWidth=2;verticalLabelPosition=bottom;verticalAlign=top;align=center;outlineConnect=0;" vertex="1" parent="1">
          <mxGeometry x="840" y="117.1" width="30" height="50" as="geometry" />
        </mxCell>
        <mxCell id="tTSo1zmGXzcevOF5TI4r-71" style="edgeStyle=none;rounded=0;orthogonalLoop=1;jettySize=auto;html=1;exitX=0.2;exitY=0.08;exitDx=0;exitDy=0;exitPerimeter=0;entryX=0.87;entryY=0.88;entryDx=0;entryDy=0;entryPerimeter=0;" edge="1" parent="1" source="tTSo1zmGXzcevOF5TI4r-65" target="tTSo1zmGXzcevOF5TI4r-66">
          <mxGeometry relative="1" as="geometry" />
        </mxCell>
        <mxCell id="tTSo1zmGXzcevOF5TI4r-65" value="" style="shape=mxgraph.cisco.buildings.branch_office;html=1;pointerEvents=1;dashed=0;fillColor=#036897;strokeColor=#ffffff;strokeWidth=2;verticalLabelPosition=bottom;verticalAlign=top;align=center;outlineConnect=0;" vertex="1" parent="1">
          <mxGeometry x="970" y="107.1" width="30" height="50" as="geometry" />
        </mxCell>
        <mxCell id="tTSo1zmGXzcevOF5TI4r-67" style="edgeStyle=none;rounded=0;orthogonalLoop=1;jettySize=auto;html=1;exitX=0;exitY=1;exitDx=0;exitDy=0;exitPerimeter=0;entryX=1;entryY=0;entryDx=0;entryDy=0;entryPerimeter=0;" edge="1" parent="1" source="tTSo1zmGXzcevOF5TI4r-66" target="tTSo1zmGXzcevOF5TI4r-64">
          <mxGeometry relative="1" as="geometry" />
        </mxCell>
        <mxCell id="tTSo1zmGXzcevOF5TI4r-66" value="" style="shape=mxgraph.cisco.buildings.branch_office;html=1;pointerEvents=1;dashed=0;fillColor=#036897;strokeColor=#ffffff;strokeWidth=2;verticalLabelPosition=bottom;verticalAlign=top;align=center;outlineConnect=0;" vertex="1" parent="1">
          <mxGeometry x="900" y="57.099999999999994" width="30" height="50" as="geometry" />
        </mxCell>
        <mxCell id="tTSo1zmGXzcevOF5TI4r-73" value="" style="shape=image;html=1;verticalAlign=top;verticalLabelPosition=bottom;labelBackgroundColor=#ffffff;imageAspect=0;aspect=fixed;image=https://cdn1.iconfinder.com/data/icons/filled-line-christmas-icons/75/_tree-128.png" vertex="1" parent="1">
          <mxGeometry x="900" y="105.05" width="25" height="25" as="geometry" />
        </mxCell>
        <mxCell id="tTSo1zmGXzcevOF5TI4r-74" value="" style="shape=image;html=1;verticalAlign=top;verticalLabelPosition=bottom;labelBackgroundColor=#ffffff;imageAspect=0;aspect=fixed;image=https://cdn1.iconfinder.com/data/icons/filled-line-christmas-icons/75/_tree-128.png" vertex="1" parent="1">
          <mxGeometry x="940" y="117.1" width="25" height="25" as="geometry" />
        </mxCell>
        <mxCell id="tTSo1zmGXzcevOF5TI4r-75" value="" style="shape=image;html=1;verticalAlign=top;verticalLabelPosition=bottom;labelBackgroundColor=#ffffff;imageAspect=0;aspect=fixed;image=https://cdn1.iconfinder.com/data/icons/filled-line-christmas-icons/75/_tree-128.png" vertex="1" parent="1">
          <mxGeometry x="890" y="142.1" width="25" height="25" as="geometry" />
        </mxCell>
        <mxCell id="tTSo1zmGXzcevOF5TI4r-76" value="" style="shape=image;html=1;verticalAlign=top;verticalLabelPosition=bottom;labelBackgroundColor=#ffffff;imageAspect=0;aspect=fixed;image=https://cdn1.iconfinder.com/data/icons/filled-line-christmas-icons/75/_tree-128.png" vertex="1" parent="1">
          <mxGeometry x="940" y="155" width="25" height="25" as="geometry" />
        </mxCell>
        <mxCell id="tTSo1zmGXzcevOF5TI4r-77" value="" style="shape=image;html=1;verticalAlign=top;verticalLabelPosition=bottom;labelBackgroundColor=#ffffff;imageAspect=0;aspect=fixed;image=https://cdn1.iconfinder.com/data/icons/filled-line-christmas-icons/75/_tree-128.png" vertex="1" parent="1">
          <mxGeometry x="905" y="173.3" width="25" height="25" as="geometry" />
        </mxCell>
        <mxCell id="tTSo1zmGXzcevOF5TI4r-79" value="" style="shape=image;html=1;verticalAlign=top;verticalLabelPosition=bottom;labelBackgroundColor=#ffffff;imageAspect=0;aspect=fixed;image=https://cdn1.iconfinder.com/data/icons/filled-line-christmas-icons/75/_tree-128.png" vertex="1" parent="1">
          <mxGeometry x="915" y="130.4" width="25" height="25" as="geometry" />
        </mxCell>
        <mxCell id="tTSo1zmGXzcevOF5TI4r-80" value="" style="shape=image;html=1;verticalAlign=top;verticalLabelPosition=bottom;labelBackgroundColor=#ffffff;imageAspect=0;aspect=fixed;image=https://cdn1.iconfinder.com/data/icons/filled-line-christmas-icons/75/_tree-128.png" vertex="1" parent="1">
          <mxGeometry x="870" y="124.60000000000001" width="25" height="25" as="geometry" />
        </mxCell>
        <mxCell id="tTSo1zmGXzcevOF5TI4r-82" value="&lt;b style=&quot;font-size: 14px&quot;&gt;MAN&lt;/b&gt;" style="text;html=1;strokeColor=none;fillColor=none;align=center;verticalAlign=middle;whiteSpace=wrap;rounded=0;" vertex="1" parent="1">
          <mxGeometry x="780" y="10.000000000000014" width="60" height="30" as="geometry" />
        </mxCell>
        <mxCell id="tTSo1zmGXzcevOF5TI4r-83" value="" style="shape=image;html=1;verticalAlign=top;verticalLabelPosition=bottom;labelBackgroundColor=#ffffff;imageAspect=0;aspect=fixed;image=https://cdn3.iconfinder.com/data/icons/49handdrawing/128x128/earth.png" vertex="1" parent="1">
          <mxGeometry x="82.4" y="410" width="210" height="210" as="geometry" />
        </mxCell>
        <mxCell id="tTSo1zmGXzcevOF5TI4r-84" value="&lt;b style=&quot;font-size: 14px&quot;&gt;WAN&lt;/b&gt;" style="text;html=1;strokeColor=none;fillColor=none;align=center;verticalAlign=middle;whiteSpace=wrap;rounded=0;" vertex="1" parent="1">
          <mxGeometry x="5.799999999999997" y="340" width="60" height="30" as="geometry" />
        </mxCell>
        <mxCell id="tTSo1zmGXzcevOF5TI4r-85" value="" style="image;html=1;image=img/lib/clip_art/computers/Server_Rack_Empty_128x128.png" vertex="1" parent="1">
          <mxGeometry x="93.60000000000001" y="510" width="20" height="40" as="geometry" />
        </mxCell>
        <mxCell id="tTSo1zmGXzcevOF5TI4r-116" style="edgeStyle=none;rounded=0;orthogonalLoop=1;jettySize=auto;html=1;exitX=1;exitY=0.75;exitDx=0;exitDy=0;entryX=0;entryY=0.25;entryDx=0;entryDy=0;fontSize=14;" edge="1" parent="1" source="tTSo1zmGXzcevOF5TI4r-86" target="tTSo1zmGXzcevOF5TI4r-87">
          <mxGeometry relative="1" as="geometry" />
        </mxCell>
        <mxCell id="tTSo1zmGXzcevOF5TI4r-117" style="edgeStyle=none;rounded=0;orthogonalLoop=1;jettySize=auto;html=1;exitX=0.25;exitY=0;exitDx=0;exitDy=0;entryX=0;entryY=0.75;entryDx=0;entryDy=0;fontSize=14;" edge="1" parent="1" source="tTSo1zmGXzcevOF5TI4r-86" target="tTSo1zmGXzcevOF5TI4r-99">
          <mxGeometry relative="1" as="geometry" />
        </mxCell>
        <mxCell id="tTSo1zmGXzcevOF5TI4r-86" value="" style="image;html=1;image=img/lib/clip_art/computers/Server_Rack_Empty_128x128.png" vertex="1" parent="1">
          <mxGeometry x="223.6" y="480" width="20" height="40" as="geometry" />
        </mxCell>
        <mxCell id="tTSo1zmGXzcevOF5TI4r-87" value="" style="image;html=1;image=img/lib/clip_art/computers/Server_Rack_Empty_128x128.png" vertex="1" parent="1">
          <mxGeometry x="245.23000000000002" y="510" width="20" height="40" as="geometry" />
        </mxCell>
        <mxCell id="tTSo1zmGXzcevOF5TI4r-115" style="edgeStyle=none;rounded=0;orthogonalLoop=1;jettySize=auto;html=1;exitX=0;exitY=0.5;exitDx=0;exitDy=0;entryX=1;entryY=0.5;entryDx=0;entryDy=0;fontSize=14;" edge="1" parent="1" source="tTSo1zmGXzcevOF5TI4r-88" target="tTSo1zmGXzcevOF5TI4r-86">
          <mxGeometry relative="1" as="geometry" />
        </mxCell>
        <mxCell id="tTSo1zmGXzcevOF5TI4r-88" value="" style="image;html=1;image=img/lib/clip_art/computers/Server_Rack_Empty_128x128.png" vertex="1" parent="1">
          <mxGeometry x="255.23000000000002" y="470" width="20" height="40" as="geometry" />
        </mxCell>
        <mxCell id="tTSo1zmGXzcevOF5TI4r-112" style="edgeStyle=none;rounded=0;orthogonalLoop=1;jettySize=auto;html=1;exitX=0;exitY=1;exitDx=0;exitDy=0;entryX=0.75;entryY=0;entryDx=0;entryDy=0;fontSize=14;" edge="1" parent="1" source="tTSo1zmGXzcevOF5TI4r-89" target="tTSo1zmGXzcevOF5TI4r-97">
          <mxGeometry relative="1" as="geometry" />
        </mxCell>
        <mxCell id="tTSo1zmGXzcevOF5TI4r-113" style="edgeStyle=none;rounded=0;orthogonalLoop=1;jettySize=auto;html=1;exitX=1;exitY=0.75;exitDx=0;exitDy=0;entryX=0;entryY=0.25;entryDx=0;entryDy=0;fontSize=14;" edge="1" parent="1" source="tTSo1zmGXzcevOF5TI4r-89" target="tTSo1zmGXzcevOF5TI4r-99">
          <mxGeometry relative="1" as="geometry" />
        </mxCell>
        <mxCell id="tTSo1zmGXzcevOF5TI4r-118" style="edgeStyle=none;rounded=0;orthogonalLoop=1;jettySize=auto;html=1;exitX=0.5;exitY=1;exitDx=0;exitDy=0;entryX=0.5;entryY=0;entryDx=0;entryDy=0;fontSize=14;" edge="1" parent="1" source="tTSo1zmGXzcevOF5TI4r-89" target="tTSo1zmGXzcevOF5TI4r-95">
          <mxGeometry relative="1" as="geometry" />
        </mxCell>
        <mxCell id="tTSo1zmGXzcevOF5TI4r-89" value="" style="image;html=1;image=img/lib/clip_art/computers/Server_Rack_Empty_128x128.png" vertex="1" parent="1">
          <mxGeometry x="164.54" y="410" width="20" height="40" as="geometry" />
        </mxCell>
        <mxCell id="tTSo1zmGXzcevOF5TI4r-101" style="edgeStyle=none;rounded=0;orthogonalLoop=1;jettySize=auto;html=1;exitX=0.75;exitY=0;exitDx=0;exitDy=0;entryX=0;entryY=0.75;entryDx=0;entryDy=0;fontSize=14;" edge="1" parent="1" source="tTSo1zmGXzcevOF5TI4r-90" target="tTSo1zmGXzcevOF5TI4r-89">
          <mxGeometry relative="1" as="geometry" />
        </mxCell>
        <mxCell id="tTSo1zmGXzcevOF5TI4r-102" style="edgeStyle=none;rounded=0;orthogonalLoop=1;jettySize=auto;html=1;exitX=1;exitY=0.5;exitDx=0;exitDy=0;entryX=0;entryY=0.5;entryDx=0;entryDy=0;fontSize=14;" edge="1" parent="1" source="tTSo1zmGXzcevOF5TI4r-90" target="tTSo1zmGXzcevOF5TI4r-99">
          <mxGeometry relative="1" as="geometry" />
        </mxCell>
        <mxCell id="tTSo1zmGXzcevOF5TI4r-103" style="edgeStyle=none;rounded=0;orthogonalLoop=1;jettySize=auto;html=1;exitX=0.75;exitY=1;exitDx=0;exitDy=0;entryX=1;entryY=0.25;entryDx=0;entryDy=0;fontSize=14;" edge="1" parent="1" source="tTSo1zmGXzcevOF5TI4r-90" target="tTSo1zmGXzcevOF5TI4r-85">
          <mxGeometry relative="1" as="geometry" />
        </mxCell>
        <mxCell id="tTSo1zmGXzcevOF5TI4r-104" style="edgeStyle=none;rounded=0;orthogonalLoop=1;jettySize=auto;html=1;exitX=1;exitY=0.75;exitDx=0;exitDy=0;entryX=0;entryY=0.25;entryDx=0;entryDy=0;fontSize=14;" edge="1" parent="1" source="tTSo1zmGXzcevOF5TI4r-90" target="tTSo1zmGXzcevOF5TI4r-97">
          <mxGeometry relative="1" as="geometry" />
        </mxCell>
        <mxCell id="tTSo1zmGXzcevOF5TI4r-105" style="edgeStyle=none;rounded=0;orthogonalLoop=1;jettySize=auto;html=1;exitX=1;exitY=0.25;exitDx=0;exitDy=0;entryX=0;entryY=0.25;entryDx=0;entryDy=0;fontSize=14;" edge="1" parent="1" source="tTSo1zmGXzcevOF5TI4r-90" target="tTSo1zmGXzcevOF5TI4r-86">
          <mxGeometry relative="1" as="geometry" />
        </mxCell>
        <mxCell id="tTSo1zmGXzcevOF5TI4r-106" style="edgeStyle=none;rounded=0;orthogonalLoop=1;jettySize=auto;html=1;exitX=1;exitY=0.5;exitDx=0;exitDy=0;entryX=0;entryY=0.5;entryDx=0;entryDy=0;fontSize=14;" edge="1" parent="1" source="tTSo1zmGXzcevOF5TI4r-90" target="tTSo1zmGXzcevOF5TI4r-87">
          <mxGeometry relative="1" as="geometry" />
        </mxCell>
        <mxCell id="tTSo1zmGXzcevOF5TI4r-90" value="" style="image;html=1;image=img/lib/clip_art/computers/Server_Rack_Empty_128x128.png" vertex="1" parent="1">
          <mxGeometry x="104.80000000000001" y="460" width="20" height="40" as="geometry" />
        </mxCell>
        <mxCell id="tTSo1zmGXzcevOF5TI4r-107" style="edgeStyle=none;rounded=0;orthogonalLoop=1;jettySize=auto;html=1;exitX=1;exitY=0;exitDx=0;exitDy=0;entryX=0;entryY=0.75;entryDx=0;entryDy=0;fontSize=14;" edge="1" parent="1" source="tTSo1zmGXzcevOF5TI4r-95" target="tTSo1zmGXzcevOF5TI4r-87">
          <mxGeometry relative="1" as="geometry" />
        </mxCell>
        <mxCell id="tTSo1zmGXzcevOF5TI4r-108" style="edgeStyle=none;rounded=0;orthogonalLoop=1;jettySize=auto;html=1;exitX=0;exitY=0.25;exitDx=0;exitDy=0;entryX=1;entryY=0.5;entryDx=0;entryDy=0;fontSize=14;" edge="1" parent="1" source="tTSo1zmGXzcevOF5TI4r-95" target="tTSo1zmGXzcevOF5TI4r-96">
          <mxGeometry relative="1" as="geometry" />
        </mxCell>
        <mxCell id="tTSo1zmGXzcevOF5TI4r-109" style="edgeStyle=none;rounded=0;orthogonalLoop=1;jettySize=auto;html=1;exitX=0;exitY=0.5;exitDx=0;exitDy=0;entryX=1;entryY=0.5;entryDx=0;entryDy=0;fontSize=14;" edge="1" parent="1" source="tTSo1zmGXzcevOF5TI4r-95" target="tTSo1zmGXzcevOF5TI4r-85">
          <mxGeometry relative="1" as="geometry" />
        </mxCell>
        <mxCell id="tTSo1zmGXzcevOF5TI4r-110" style="edgeStyle=none;rounded=0;orthogonalLoop=1;jettySize=auto;html=1;exitX=0;exitY=0;exitDx=0;exitDy=0;entryX=0.75;entryY=1;entryDx=0;entryDy=0;fontSize=14;" edge="1" parent="1" source="tTSo1zmGXzcevOF5TI4r-95" target="tTSo1zmGXzcevOF5TI4r-97">
          <mxGeometry relative="1" as="geometry" />
        </mxCell>
        <mxCell id="tTSo1zmGXzcevOF5TI4r-111" style="edgeStyle=none;rounded=0;orthogonalLoop=1;jettySize=auto;html=1;exitX=0.5;exitY=0;exitDx=0;exitDy=0;entryX=0;entryY=0.75;entryDx=0;entryDy=0;fontSize=14;" edge="1" parent="1" source="tTSo1zmGXzcevOF5TI4r-95" target="tTSo1zmGXzcevOF5TI4r-86">
          <mxGeometry relative="1" as="geometry" />
        </mxCell>
        <mxCell id="tTSo1zmGXzcevOF5TI4r-95" value="" style="image;html=1;image=img/lib/clip_art/computers/Server_Rack_Empty_128x128.png" vertex="1" parent="1">
          <mxGeometry x="205.23" y="565" width="20" height="40" as="geometry" />
        </mxCell>
        <mxCell id="tTSo1zmGXzcevOF5TI4r-119" style="edgeStyle=none;rounded=0;orthogonalLoop=1;jettySize=auto;html=1;exitX=0.5;exitY=0;exitDx=0;exitDy=0;entryX=0;entryY=1;entryDx=0;entryDy=0;fontSize=14;" edge="1" parent="1" source="tTSo1zmGXzcevOF5TI4r-96" target="tTSo1zmGXzcevOF5TI4r-97">
          <mxGeometry relative="1" as="geometry" />
        </mxCell>
        <mxCell id="tTSo1zmGXzcevOF5TI4r-96" value="" style="image;html=1;image=img/lib/clip_art/computers/Server_Rack_Empty_128x128.png" vertex="1" parent="1">
          <mxGeometry x="114.80000000000001" y="550" width="20" height="40" as="geometry" />
        </mxCell>
        <mxCell id="tTSo1zmGXzcevOF5TI4r-97" value="" style="image;html=1;image=img/lib/clip_art/computers/Server_Rack_Empty_128x128.png" vertex="1" parent="1">
          <mxGeometry x="138.64" y="490" width="20" height="40" as="geometry" />
        </mxCell>
        <mxCell id="tTSo1zmGXzcevOF5TI4r-114" style="edgeStyle=none;rounded=0;orthogonalLoop=1;jettySize=auto;html=1;exitX=1;exitY=0.75;exitDx=0;exitDy=0;entryX=0;entryY=0.25;entryDx=0;entryDy=0;fontSize=14;" edge="1" parent="1" source="tTSo1zmGXzcevOF5TI4r-99" target="tTSo1zmGXzcevOF5TI4r-88">
          <mxGeometry relative="1" as="geometry" />
        </mxCell>
        <mxCell id="tTSo1zmGXzcevOF5TI4r-99" value="" style="image;html=1;image=img/lib/clip_art/computers/Server_Rack_Empty_128x128.png" vertex="1" parent="1">
          <mxGeometry x="225.23" y="430" width="20" height="40" as="geometry" />
        </mxCell>
        <mxCell id="tTSo1zmGXzcevOF5TI4r-125" style="edgeStyle=none;rounded=0;orthogonalLoop=1;jettySize=auto;html=1;exitX=0.08;exitY=0.5;exitDx=0;exitDy=0;exitPerimeter=0;entryX=0.91;entryY=0.96;entryDx=0;entryDy=0;entryPerimeter=0;fontSize=14;" edge="1" parent="1" source="tTSo1zmGXzcevOF5TI4r-120" target="tTSo1zmGXzcevOF5TI4r-122">
          <mxGeometry relative="1" as="geometry" />
        </mxCell>
        <mxCell id="tTSo1zmGXzcevOF5TI4r-128" style="edgeStyle=none;rounded=0;orthogonalLoop=1;jettySize=auto;html=1;exitX=0.9;exitY=0.02;exitDx=0;exitDy=0;exitPerimeter=0;entryX=-0.095;entryY=1.07;entryDx=0;entryDy=0;entryPerimeter=0;fontSize=14;" edge="1" parent="1" source="tTSo1zmGXzcevOF5TI4r-120" target="tTSo1zmGXzcevOF5TI4r-127">
          <mxGeometry relative="1" as="geometry" />
        </mxCell>
        <mxCell id="tTSo1zmGXzcevOF5TI4r-131" style="edgeStyle=none;rounded=0;orthogonalLoop=1;jettySize=auto;html=1;exitX=0.02;exitY=0.98;exitDx=0;exitDy=0;exitPerimeter=0;entryX=0.75;entryY=0;entryDx=0;entryDy=0;fontSize=14;" edge="1" parent="1" source="tTSo1zmGXzcevOF5TI4r-120" target="tTSo1zmGXzcevOF5TI4r-129">
          <mxGeometry relative="1" as="geometry" />
        </mxCell>
        <mxCell id="tTSo1zmGXzcevOF5TI4r-137" style="edgeStyle=none;rounded=0;orthogonalLoop=1;jettySize=auto;html=1;exitX=0.98;exitY=0.98;exitDx=0;exitDy=0;exitPerimeter=0;entryX=0.252;entryY=-0.049;entryDx=0;entryDy=0;entryPerimeter=0;fontSize=14;" edge="1" parent="1" source="tTSo1zmGXzcevOF5TI4r-120" target="tTSo1zmGXzcevOF5TI4r-132">
          <mxGeometry relative="1" as="geometry" />
        </mxCell>
        <mxCell id="tTSo1zmGXzcevOF5TI4r-140" style="edgeStyle=none;rounded=0;orthogonalLoop=1;jettySize=auto;html=1;exitX=0.04;exitY=0.725;exitDx=0;exitDy=0;exitPerimeter=0;entryX=1.093;entryY=0.573;entryDx=0;entryDy=0;entryPerimeter=0;fontSize=14;" edge="1" parent="1" source="tTSo1zmGXzcevOF5TI4r-120" target="tTSo1zmGXzcevOF5TI4r-139">
          <mxGeometry relative="1" as="geometry" />
        </mxCell>
        <mxCell id="tTSo1zmGXzcevOF5TI4r-120" value="" style="verticalLabelPosition=bottom;html=1;verticalAlign=top;align=center;strokeColor=none;fillColor=#00BEF2;shape=mxgraph.azure.laptop;pointerEvents=1;" vertex="1" parent="1">
          <mxGeometry x="626.1" y="490" width="50" height="40" as="geometry" />
        </mxCell>
        <mxCell id="tTSo1zmGXzcevOF5TI4r-121" value="" style="fontColor=#0066CC;verticalAlign=top;verticalLabelPosition=bottom;labelPosition=center;align=center;html=1;outlineConnect=0;fillColor=#CCCCCC;strokeColor=#6881B3;gradientColor=none;gradientDirection=north;strokeWidth=2;shape=mxgraph.networks.radio_tower;fontSize=14;" vertex="1" parent="1">
          <mxGeometry x="556.7" y="400" width="20" height="40" as="geometry" />
        </mxCell>
        <mxCell id="tTSo1zmGXzcevOF5TI4r-126" style="edgeStyle=none;rounded=0;orthogonalLoop=1;jettySize=auto;html=1;exitX=0;exitY=0.5;exitDx=0;exitDy=0;exitPerimeter=0;entryX=0.91;entryY=1;entryDx=0;entryDy=0;entryPerimeter=0;fontSize=14;" edge="1" parent="1" source="tTSo1zmGXzcevOF5TI4r-122" target="tTSo1zmGXzcevOF5TI4r-121">
          <mxGeometry relative="1" as="geometry" />
        </mxCell>
        <mxCell id="tTSo1zmGXzcevOF5TI4r-122" value="" style="shape=mxgraph.signs.tech.cell_phone;html=1;pointerEvents=1;fillColor=#000000;strokeColor=none;verticalLabelPosition=bottom;verticalAlign=top;align=center;fontSize=14;" vertex="1" parent="1">
          <mxGeometry x="587.6" y="442" width="20" height="38" as="geometry" />
        </mxCell>
        <mxCell id="tTSo1zmGXzcevOF5TI4r-127" value="" style="points=[];aspect=fixed;html=1;align=center;shadow=0;dashed=0;image;image=img/lib/allied_telesis/computer_and_terminals/Personal_Computer_Wireless.svg;" vertex="1" parent="1">
          <mxGeometry x="689.1" y="430" width="42.1" height="42.9" as="geometry" />
        </mxCell>
        <mxCell id="tTSo1zmGXzcevOF5TI4r-129" value="" style="shape=image;html=1;verticalAlign=top;verticalLabelPosition=bottom;labelBackgroundColor=#ffffff;imageAspect=0;aspect=fixed;image=https://cdn3.iconfinder.com/data/icons/essential-pack/32/21-Mouse-128.png;fontSize=14;" vertex="1" parent="1">
          <mxGeometry x="569.1" y="550" width="40" height="40" as="geometry" />
        </mxCell>
        <mxCell id="tTSo1zmGXzcevOF5TI4r-132" value="" style="html=1;verticalLabelPosition=bottom;align=center;labelBackgroundColor=#ffffff;verticalAlign=top;strokeWidth=2;strokeColor=#0080F0;shadow=0;dashed=0;shape=mxgraph.ios7.icons.home;fontSize=14;" vertex="1" parent="1">
          <mxGeometry x="677.0500000000001" y="557.25" width="24" height="25.5" as="geometry" />
        </mxCell>
        <mxCell id="tTSo1zmGXzcevOF5TI4r-138" style="edgeStyle=none;rounded=0;orthogonalLoop=1;jettySize=auto;html=1;exitX=1;exitY=0.5;exitDx=0;exitDy=0;fontSize=14;" edge="1" parent="1" source="tTSo1zmGXzcevOF5TI4r-133" target="tTSo1zmGXzcevOF5TI4r-136">
          <mxGeometry relative="1" as="geometry" />
        </mxCell>
        <mxCell id="tTSo1zmGXzcevOF5TI4r-133" value="" style="shape=image;html=1;verticalAlign=top;verticalLabelPosition=bottom;labelBackgroundColor=#ffffff;imageAspect=0;aspect=fixed;image=https://cdn2.iconfinder.com/data/icons/css-vol-3/24/smart-home-refrigerator-128.png;fontSize=14;" vertex="1" parent="1">
          <mxGeometry x="701.2" y="557.25" width="30" height="30" as="geometry" />
        </mxCell>
        <mxCell id="tTSo1zmGXzcevOF5TI4r-136" value="" style="shape=image;html=1;verticalAlign=top;verticalLabelPosition=bottom;labelBackgroundColor=#ffffff;imageAspect=0;aspect=fixed;image=https://cdn0.iconfinder.com/data/icons/electronics-line-style/64/Remote-128.png;fontSize=14;" vertex="1" parent="1">
          <mxGeometry x="749.1" y="550" width="40" height="40" as="geometry" />
        </mxCell>
        <mxCell id="tTSo1zmGXzcevOF5TI4r-139" value="" style="points=[];aspect=fixed;html=1;align=center;shadow=0;dashed=0;image;image=img/lib/allied_telesis/computer_and_terminals/Personal_Computer.svg;" vertex="1" parent="1">
          <mxGeometry x="552.86" y="492.5" width="27.67" height="37.5" as="geometry" />
        </mxCell>
        <mxCell id="tTSo1zmGXzcevOF5TI4r-142" style="edgeStyle=none;rounded=0;orthogonalLoop=1;jettySize=auto;html=1;exitX=1;exitY=0.5;exitDx=0;exitDy=0;fontSize=14;" edge="1" parent="1" source="tTSo1zmGXzcevOF5TI4r-141" target="tTSo1zmGXzcevOF5TI4r-141">
          <mxGeometry relative="1" as="geometry">
            <Array as="points">
              <mxPoint x="550" y="510" />
            </Array>
          </mxGeometry>
        </mxCell>
        <mxCell id="tTSo1zmGXzcevOF5TI4r-141" value="" style="shape=image;html=1;verticalAlign=top;verticalLabelPosition=bottom;labelBackgroundColor=#ffffff;imageAspect=0;aspect=fixed;image=https://cdn1.iconfinder.com/data/icons/computer-hardware-glyphs-vol-2/52/headphone__device__speaker__earphone__headset__communication__support-128.png;fontSize=14;" vertex="1" parent="1">
          <mxGeometry x="490" y="492.5" width="38" height="38" as="geometry" />
        </mxCell>
        <mxCell id="tTSo1zmGXzcevOF5TI4r-143" value="&lt;b style=&quot;font-size: 14px&quot;&gt;PAN&lt;/b&gt;" style="text;html=1;strokeColor=none;fillColor=none;align=center;verticalAlign=middle;whiteSpace=wrap;rounded=0;" vertex="1" parent="1">
          <mxGeometry x="607.6" y="340" width="60" height="30" as="geometry" />
        </mxCell>
        <mxCell id="tTSo1zmGXzcevOF5TI4r-147" style="edgeStyle=none;rounded=0;orthogonalLoop=1;jettySize=auto;html=1;exitX=0;exitY=0.5;exitDx=0;exitDy=0;entryX=0.91;entryY=0.96;entryDx=0;entryDy=0;entryPerimeter=0;fontSize=14;" edge="1" parent="1" source="tTSo1zmGXzcevOF5TI4r-144" target="tTSo1zmGXzcevOF5TI4r-146">
          <mxGeometry relative="1" as="geometry" />
        </mxCell>
        <mxCell id="tTSo1zmGXzcevOF5TI4r-149" style="edgeStyle=none;rounded=0;orthogonalLoop=1;jettySize=auto;html=1;exitX=0;exitY=0.75;exitDx=0;exitDy=0;fontSize=14;" edge="1" parent="1" source="tTSo1zmGXzcevOF5TI4r-144" target="tTSo1zmGXzcevOF5TI4r-148">
          <mxGeometry relative="1" as="geometry" />
        </mxCell>
        <mxCell id="tTSo1zmGXzcevOF5TI4r-152" style="edgeStyle=none;rounded=0;orthogonalLoop=1;jettySize=auto;html=1;exitX=1;exitY=0.25;exitDx=0;exitDy=0;entryX=0;entryY=0.75;entryDx=0;entryDy=0;fontSize=14;" edge="1" parent="1" source="tTSo1zmGXzcevOF5TI4r-144" target="tTSo1zmGXzcevOF5TI4r-150">
          <mxGeometry relative="1" as="geometry" />
        </mxCell>
        <mxCell id="tTSo1zmGXzcevOF5TI4r-153" style="edgeStyle=none;rounded=0;orthogonalLoop=1;jettySize=auto;html=1;exitX=1;exitY=0.75;exitDx=0;exitDy=0;entryX=0.25;entryY=0;entryDx=0;entryDy=0;fontSize=14;" edge="1" parent="1" source="tTSo1zmGXzcevOF5TI4r-144" target="tTSo1zmGXzcevOF5TI4r-151">
          <mxGeometry relative="1" as="geometry" />
        </mxCell>
        <mxCell id="tTSo1zmGXzcevOF5TI4r-144" value="" style="image;html=1;image=img/lib/clip_art/networking/Wireless_Router_N_128x128.png;fontSize=14;" vertex="1" parent="1">
          <mxGeometry x="1010" y="465" width="60" height="70" as="geometry" />
        </mxCell>
        <mxCell id="tTSo1zmGXzcevOF5TI4r-146" value="" style="shape=mxgraph.signs.tech.cell_phone;html=1;pointerEvents=1;fillColor=#000000;strokeColor=none;verticalLabelPosition=bottom;verticalAlign=top;align=center;fontSize=14;" vertex="1" parent="1">
          <mxGeometry x="940" y="434.9" width="20" height="38" as="geometry" />
        </mxCell>
        <mxCell id="tTSo1zmGXzcevOF5TI4r-148" value="" style="sketch=0;pointerEvents=1;shadow=0;dashed=0;html=1;strokeColor=none;fillColor=#505050;labelPosition=center;verticalLabelPosition=bottom;verticalAlign=top;outlineConnect=0;align=center;shape=mxgraph.office.devices.cell_phone_android_proportional;fontSize=14;" vertex="1" parent="1">
          <mxGeometry x="944" y="534" width="17" height="31" as="geometry" />
        </mxCell>
        <mxCell id="tTSo1zmGXzcevOF5TI4r-150" value="" style="shape=image;html=1;verticalAlign=top;verticalLabelPosition=bottom;labelBackgroundColor=#ffffff;imageAspect=0;aspect=fixed;image=https://cdn0.iconfinder.com/data/icons/electronics-line-style/64/Laptop-128.png;fontSize=14;" vertex="1" parent="1">
          <mxGeometry x="1090" y="434.9" width="48" height="48" as="geometry" />
        </mxCell>
        <mxCell id="tTSo1zmGXzcevOF5TI4r-151" value="" style="shape=image;html=1;verticalAlign=top;verticalLabelPosition=bottom;labelBackgroundColor=#ffffff;imageAspect=0;aspect=fixed;image=https://cdn0.iconfinder.com/data/icons/electronics-line-style/64/Laptop-128.png;fontSize=14;" vertex="1" parent="1">
          <mxGeometry x="1090" y="537" width="48" height="48" as="geometry" />
        </mxCell>
        <mxCell id="tTSo1zmGXzcevOF5TI4r-154" value="&lt;b style=&quot;font-size: 14px&quot;&gt;WLAN&lt;/b&gt;" style="text;html=1;strokeColor=none;fillColor=none;align=center;verticalAlign=middle;whiteSpace=wrap;rounded=0;" vertex="1" parent="1">
          <mxGeometry x="1000" y="350" width="60" height="30" as="geometry" />
        </mxCell>
      </root>
    </mxGraphModel>
  </diagram>
</mxfile>
